<svg width="96" height="96" viewBox="0 0 96 96" fill="none" xmlns="http://www.w3.org/2000/svg">
  <rect width="96" height="96" rx="22" fill="#06281F"/>
  <path d="M24 66V32.5C24 29.4624 26.4624 27 29.5 27H66.5C69.5376 27 72 29.4624 72 32.5V66" stroke="#D9B76A" stroke-width="5" stroke-linecap="round"/>
  <path d="M32 66V42.5C32 40.567 33.567 39 35.5 39H60.5C62.433 39 64 40.567 64 42.5V66" stroke="#F7F1DD" stroke-width="4" stroke-linecap="round"/>
  <path d="M39 66V51.5C39 49.567 40.567 48 42.5 48H53.5C55.433 48 57 49.567 57 51.5V66" fill="#2DD4BF"/>
  <path d="M20 70H76" stroke="#2DD4BF" stroke-width="5" stroke-linecap="round"/>
  <path d="M35 27C37.5 20.5 42 17 48 17C54 17 58.5 20.5 61 27" stroke="#D9B76A" stroke-width="5" stroke-linecap="round"/>
  <circle cx="48" cy="33" r="3" fill="#2DD4BF"/>
</svg>
